<mxfile host="app.diagrams.net" agent="Mozilla/5.0 (Windows NT 10.0; Win64; x64) AppleWebKit/537.36 (KHTML, like Gecko) Chrome/131.0.0.0 Safari/537.36" version="26.0.7">
  <diagram name="Pagina-1" id="jFwaAp8ngbvkLAB8znDN">
    <mxGraphModel dx="1050" dy="557" grid="1" gridSize="10" guides="1" tooltips="1" connect="1" arrows="1" fold="1" page="1" pageScale="1" pageWidth="827" pageHeight="1169" math="0" shadow="0">
      <root>
        <mxCell id="0" />
        <mxCell id="1" parent="0" />
        <mxCell id="aU-aHtXzv-DATz1q-0H3-7" value="" style="edgeStyle=orthogonalEdgeStyle;rounded=0;orthogonalLoop=1;jettySize=auto;html=1;" edge="1" parent="1" source="aU-aHtXzv-DATz1q-0H3-1" target="aU-aHtXzv-DATz1q-0H3-6">
          <mxGeometry relative="1" as="geometry" />
        </mxCell>
        <mxCell id="aU-aHtXzv-DATz1q-0H3-1" value="start" style="ellipse;whiteSpace=wrap;html=1;" vertex="1" parent="1">
          <mxGeometry x="354" width="120" height="80" as="geometry" />
        </mxCell>
        <mxCell id="aU-aHtXzv-DATz1q-0H3-5" value="" style="edgeStyle=orthogonalEdgeStyle;rounded=0;orthogonalLoop=1;jettySize=auto;html=1;" edge="1" parent="1" source="aU-aHtXzv-DATz1q-0H3-2" target="aU-aHtXzv-DATz1q-0H3-4">
          <mxGeometry relative="1" as="geometry" />
        </mxCell>
        <mxCell id="aU-aHtXzv-DATz1q-0H3-2" value="write&lt;div&gt;&quot;Insert your age&quot;&lt;/div&gt;" style="shape=parallelogram;perimeter=parallelogramPerimeter;whiteSpace=wrap;html=1;fixedSize=1;" vertex="1" parent="1">
          <mxGeometry x="354" y="319" width="120" height="60" as="geometry" />
        </mxCell>
        <mxCell id="aU-aHtXzv-DATz1q-0H3-10" value="" style="edgeStyle=orthogonalEdgeStyle;rounded=0;orthogonalLoop=1;jettySize=auto;html=1;" edge="1" parent="1" source="aU-aHtXzv-DATz1q-0H3-4" target="aU-aHtXzv-DATz1q-0H3-9">
          <mxGeometry relative="1" as="geometry" />
        </mxCell>
        <mxCell id="aU-aHtXzv-DATz1q-0H3-4" value="read age" style="shape=parallelogram;perimeter=parallelogramPerimeter;whiteSpace=wrap;html=1;fixedSize=1;" vertex="1" parent="1">
          <mxGeometry x="354" y="459" width="120" height="60" as="geometry" />
        </mxCell>
        <mxCell id="aU-aHtXzv-DATz1q-0H3-8" style="edgeStyle=orthogonalEdgeStyle;rounded=0;orthogonalLoop=1;jettySize=auto;html=1;exitX=0.5;exitY=1;exitDx=0;exitDy=0;entryX=0.5;entryY=0;entryDx=0;entryDy=0;" edge="1" parent="1" source="aU-aHtXzv-DATz1q-0H3-6" target="aU-aHtXzv-DATz1q-0H3-2">
          <mxGeometry relative="1" as="geometry" />
        </mxCell>
        <mxCell id="aU-aHtXzv-DATz1q-0H3-6" value="age_min = 18&lt;div&gt;age_max = 65&lt;/div&gt;" style="whiteSpace=wrap;html=1;" vertex="1" parent="1">
          <mxGeometry x="354" y="170" width="120" height="60" as="geometry" />
        </mxCell>
        <mxCell id="aU-aHtXzv-DATz1q-0H3-12" value="" style="edgeStyle=orthogonalEdgeStyle;rounded=0;orthogonalLoop=1;jettySize=auto;html=1;" edge="1" parent="1" source="aU-aHtXzv-DATz1q-0H3-9" target="aU-aHtXzv-DATz1q-0H3-11">
          <mxGeometry relative="1" as="geometry" />
        </mxCell>
        <mxCell id="aU-aHtXzv-DATz1q-0H3-15" value="FALSE" style="edgeLabel;html=1;align=center;verticalAlign=middle;resizable=0;points=[];" vertex="1" connectable="0" parent="aU-aHtXzv-DATz1q-0H3-12">
          <mxGeometry x="-0.38" y="5" relative="1" as="geometry">
            <mxPoint as="offset" />
          </mxGeometry>
        </mxCell>
        <mxCell id="aU-aHtXzv-DATz1q-0H3-17" value="" style="edgeStyle=orthogonalEdgeStyle;rounded=0;orthogonalLoop=1;jettySize=auto;html=1;" edge="1" parent="1" source="aU-aHtXzv-DATz1q-0H3-9" target="aU-aHtXzv-DATz1q-0H3-16">
          <mxGeometry relative="1" as="geometry" />
        </mxCell>
        <mxCell id="aU-aHtXzv-DATz1q-0H3-18" value="TRUE" style="edgeLabel;html=1;align=center;verticalAlign=middle;resizable=0;points=[];" vertex="1" connectable="0" parent="aU-aHtXzv-DATz1q-0H3-17">
          <mxGeometry x="-0.159" y="-2" relative="1" as="geometry">
            <mxPoint as="offset" />
          </mxGeometry>
        </mxCell>
        <mxCell id="aU-aHtXzv-DATz1q-0H3-9" value="age_min &amp;lt;= age &amp;lt;= age_max" style="rhombus;whiteSpace=wrap;html=1;" vertex="1" parent="1">
          <mxGeometry x="366" y="589" width="96" height="121" as="geometry" />
        </mxCell>
        <mxCell id="aU-aHtXzv-DATz1q-0H3-20" value="" style="edgeStyle=orthogonalEdgeStyle;rounded=0;orthogonalLoop=1;jettySize=auto;html=1;" edge="1" parent="1" source="aU-aHtXzv-DATz1q-0H3-11" target="aU-aHtXzv-DATz1q-0H3-19">
          <mxGeometry relative="1" as="geometry" />
        </mxCell>
        <mxCell id="aU-aHtXzv-DATz1q-0H3-23" value="FALSE" style="edgeLabel;html=1;align=center;verticalAlign=middle;resizable=0;points=[];" vertex="1" connectable="0" parent="aU-aHtXzv-DATz1q-0H3-20">
          <mxGeometry x="-0.3795" y="3" relative="1" as="geometry">
            <mxPoint as="offset" />
          </mxGeometry>
        </mxCell>
        <mxCell id="aU-aHtXzv-DATz1q-0H3-22" value="" style="edgeStyle=orthogonalEdgeStyle;rounded=0;orthogonalLoop=1;jettySize=auto;html=1;" edge="1" parent="1" source="aU-aHtXzv-DATz1q-0H3-11" target="aU-aHtXzv-DATz1q-0H3-21">
          <mxGeometry relative="1" as="geometry" />
        </mxCell>
        <mxCell id="aU-aHtXzv-DATz1q-0H3-24" value="TRUE" style="edgeLabel;html=1;align=center;verticalAlign=middle;resizable=0;points=[];" vertex="1" connectable="0" parent="aU-aHtXzv-DATz1q-0H3-22">
          <mxGeometry x="-0.0805" y="2" relative="1" as="geometry">
            <mxPoint as="offset" />
          </mxGeometry>
        </mxCell>
        <mxCell id="aU-aHtXzv-DATz1q-0H3-11" value="age &amp;lt; age_min" style="rhombus;whiteSpace=wrap;html=1;" vertex="1" parent="1">
          <mxGeometry x="366" y="790" width="96" height="121" as="geometry" />
        </mxCell>
        <mxCell id="aU-aHtXzv-DATz1q-0H3-28" style="edgeStyle=orthogonalEdgeStyle;rounded=0;orthogonalLoop=1;jettySize=auto;html=1;exitX=0.5;exitY=1;exitDx=0;exitDy=0;entryX=1;entryY=0.5;entryDx=0;entryDy=0;" edge="1" parent="1" source="aU-aHtXzv-DATz1q-0H3-16" target="aU-aHtXzv-DATz1q-0H3-25">
          <mxGeometry relative="1" as="geometry" />
        </mxCell>
        <mxCell id="aU-aHtXzv-DATz1q-0H3-16" value="write &quot;The user can partecipate to the activity&lt;span style=&quot;background-color: transparent; color: light-dark(rgb(0, 0, 0), rgb(255, 255, 255));&quot;&gt;&quot;&lt;/span&gt;" style="shape=parallelogram;perimeter=parallelogramPerimeter;whiteSpace=wrap;html=1;fixedSize=1;" vertex="1" parent="1">
          <mxGeometry x="530" y="619.5" width="160" height="60" as="geometry" />
        </mxCell>
        <mxCell id="aU-aHtXzv-DATz1q-0H3-26" style="edgeStyle=orthogonalEdgeStyle;rounded=0;orthogonalLoop=1;jettySize=auto;html=1;exitX=0.5;exitY=1;exitDx=0;exitDy=0;entryX=0;entryY=0.5;entryDx=0;entryDy=0;" edge="1" parent="1" source="aU-aHtXzv-DATz1q-0H3-19" target="aU-aHtXzv-DATz1q-0H3-25">
          <mxGeometry relative="1" as="geometry" />
        </mxCell>
        <mxCell id="aU-aHtXzv-DATz1q-0H3-19" value="write &quot;The user can&#39;t partecipate because is age is more then the maximum age permitted&quot;" style="shape=parallelogram;perimeter=parallelogramPerimeter;whiteSpace=wrap;html=1;fixedSize=1;" vertex="1" parent="1">
          <mxGeometry x="80" y="820.5" width="218" height="60" as="geometry" />
        </mxCell>
        <mxCell id="aU-aHtXzv-DATz1q-0H3-27" value="" style="edgeStyle=orthogonalEdgeStyle;rounded=0;orthogonalLoop=1;jettySize=auto;html=1;" edge="1" parent="1" source="aU-aHtXzv-DATz1q-0H3-21" target="aU-aHtXzv-DATz1q-0H3-25">
          <mxGeometry relative="1" as="geometry" />
        </mxCell>
        <mxCell id="aU-aHtXzv-DATz1q-0H3-21" value="write &quot;The user can&#39;t partecipate because is age is less then the minum age required&quot;" style="shape=parallelogram;perimeter=parallelogramPerimeter;whiteSpace=wrap;html=1;fixedSize=1;" vertex="1" parent="1">
          <mxGeometry x="304" y="1021.5" width="220" height="60" as="geometry" />
        </mxCell>
        <mxCell id="aU-aHtXzv-DATz1q-0H3-30" style="edgeStyle=orthogonalEdgeStyle;rounded=0;orthogonalLoop=1;jettySize=auto;html=1;exitX=0.5;exitY=1;exitDx=0;exitDy=0;entryX=0.5;entryY=0;entryDx=0;entryDy=0;" edge="1" parent="1" source="aU-aHtXzv-DATz1q-0H3-25" target="aU-aHtXzv-DATz1q-0H3-29">
          <mxGeometry relative="1" as="geometry" />
        </mxCell>
        <mxCell id="aU-aHtXzv-DATz1q-0H3-25" value="" style="ellipse;whiteSpace=wrap;html=1;aspect=fixed;" vertex="1" parent="1">
          <mxGeometry x="398" y="1150" width="32" height="32" as="geometry" />
        </mxCell>
        <mxCell id="aU-aHtXzv-DATz1q-0H3-29" value="end" style="ellipse;whiteSpace=wrap;html=1;" vertex="1" parent="1">
          <mxGeometry x="354" y="1290" width="120" height="80" as="geometry" />
        </mxCell>
      </root>
    </mxGraphModel>
  </diagram>
</mxfile>
